REM DIRINDEX 1\2\3,1\2\4,1\2\5,1\2\6
REM DIRNAME folder01,folder02,folder03,folder04,folder05,folder06
TITLE ""
FILE "077 077.mp3" MP3
  TRACK 01 AUDIO
    TITLE "0:"
    INDEX 01 00:00:00
  TRACK 02 AUDIO
    TITLE "3:cjc157_2883"
    INDEX 01 00:00:09
  TRACK 03 AUDIO
    TITLE "0:"
    INDEX 01 00:01:17
  TRACK 04 AUDIO
    TITLE "4:cjc157_2884"
    INDEX 01 00:01:62
  TRACK 05 AUDIO
    TITLE "0:"
    INDEX 01 00:02:67
  TRACK 06 AUDIO
    TITLE "5:cjc157_2885"
    INDEX 01 00:03:33
  TRACK 07 AUDIO
    TITLE "0:"
    INDEX 01 00:05:36
  TRACK 08 AUDIO
    TITLE "3:cjc157_2886"
    INDEX 01 00:06:08
  TRACK 09 AUDIO
    TITLE "0:"
    INDEX 01 00:07:25
  TRACK 10 AUDIO
    TITLE "4:cjc157_2887"
    INDEX 01 00:07:74
  TRACK 11 AUDIO
    TITLE "0:"
    INDEX 01 00:09:00
  TRACK 12 AUDIO
    TITLE "5:cjc157_2888"
    INDEX 01 00:09:45
  TRACK 13 AUDIO
    TITLE "0:"
    INDEX 01 00:11:29
  TRACK 14 AUDIO
    TITLE "5:cjc157_2889"
    INDEX 01 00:11:72
  TRACK 15 AUDIO
    TITLE "0:"
    INDEX 01 00:13:67
  TRACK 16 AUDIO
    TITLE "3:cjc157_2890"
    INDEX 01 00:14:37
  TRACK 17 AUDIO
    TITLE "0:"
    INDEX 01 00:15:46
  TRACK 18 AUDIO
    TITLE "4:cjc157_2891"
    INDEX 01 00:16:16
  TRACK 19 AUDIO
    TITLE "0:"
    INDEX 01 00:17:35
  TRACK 20 AUDIO
    TITLE "5:cjc157_2892"
    INDEX 01 00:18:07
  TRACK 21 AUDIO
    TITLE "0:"
    INDEX 01 00:20:10
  TRACK 22 AUDIO
    TITLE "5:cjc157_2893"
    INDEX 01 00:20:55
  TRACK 23 AUDIO
    TITLE "0:"
    INDEX 01 00:22:52
  TRACK 24 AUDIO
    TITLE "3:cjc157_2894"
    INDEX 01 00:23:22
  TRACK 25 AUDIO
    TITLE "0:"
    INDEX 01 00:24:41
  TRACK 26 AUDIO
    TITLE "4:cjc157_2895"
    INDEX 01 00:25:13
  TRACK 27 AUDIO
    TITLE "0:"
    INDEX 01 00:26:30
  TRACK 28 AUDIO
    TITLE "5:cjc157_2896"
    INDEX 01 00:26:71
  TRACK 29 AUDIO
    TITLE "0:"
    INDEX 01 00:29:01
  TRACK 30 AUDIO
    TITLE "3:cjc157_2897"
    INDEX 01 00:29:44
  TRACK 31 AUDIO
    TITLE "0:"
    INDEX 01 00:31:16
  TRACK 32 AUDIO
    TITLE "4:cjc157_2898"
    INDEX 01 00:31:61
  TRACK 33 AUDIO
    TITLE "0:"
    INDEX 01 00:34:65
  TRACK 34 AUDIO
    TITLE "5:cjc157_2899"
    INDEX 01 00:35:43
  TRACK 35 AUDIO
    TITLE "0:"
    INDEX 01 00:37:44
  TRACK 36 AUDIO
    TITLE "5:cjc157_2900"
    INDEX 01 00:38:10
  TRACK 37 AUDIO
    TITLE "0:"
    INDEX 01 00:40:17
  TRACK 38 AUDIO
    TITLE "3:cjc157_2901"
    INDEX 01 00:40:62
  TRACK 39 AUDIO
    TITLE "0:"
    INDEX 01 00:41:51
  TRACK 40 AUDIO
    TITLE "4:cjc157_2902"
    INDEX 01 00:42:25
  TRACK 41 AUDIO
    TITLE "0:"
    INDEX 01 00:43:31
  TRACK 42 AUDIO
    TITLE "5:cjc157_2903"
    INDEX 01 00:44:07
  TRACK 43 AUDIO
    TITLE "0:"
    INDEX 01 00:45:69
  TRACK 44 AUDIO
    TITLE "5:cjc157_2904"
    INDEX 01 00:46:41
  TRACK 45 AUDIO
    TITLE "0:"
    INDEX 01 00:48:38
  TRACK 46 AUDIO
    TITLE "5:cjc157_2905"
    INDEX 01 00:49:10
  TRACK 47 AUDIO
    TITLE "0:"
    INDEX 01 00:52:55
  TRACK 48 AUDIO
    TITLE "3:cjc157_2906"
    INDEX 01 00:53:33
  TRACK 49 AUDIO
    TITLE "0:"
    INDEX 01 00:54:29
  TRACK 50 AUDIO
    TITLE "4:cjc157_2907"
    INDEX 01 00:54:72
  TRACK 51 AUDIO
    TITLE "0:"
    INDEX 01 00:56:02
  TRACK 52 AUDIO
    TITLE "5:cjc157_2908"
    INDEX 01 00:56:45
  TRACK 53 AUDIO
    TITLE "0:"
    INDEX 01 00:59:22
  TRACK 54 AUDIO
    TITLE "5:cjc157_2909"
    INDEX 01 00:59:67
  TRACK 55 AUDIO
    TITLE "0:"
    INDEX 01 01:01:38
  TRACK 56 AUDIO
    TITLE "3:cjc157_2910"
    INDEX 01 01:02:08
  TRACK 57 AUDIO
    TITLE "0:"
    INDEX 01 01:03:49
  TRACK 58 AUDIO
    TITLE "4:cjc157_2911"
    INDEX 01 01:04:19
  TRACK 59 AUDIO
    TITLE "0:"
    INDEX 01 01:05:48
  TRACK 60 AUDIO
    TITLE "5:cjc157_2912"
    INDEX 01 01:06:22
  TRACK 61 AUDIO
    TITLE "0:"
    INDEX 01 01:08:31
  TRACK 62 AUDIO
    TITLE "5:cjc157_2913"
    INDEX 01 01:08:74
  TRACK 63 AUDIO
    TITLE "0:"
    INDEX 01 01:12:15
  TRACK 64 AUDIO
    TITLE "3:cjc157_2914"
    INDEX 01 01:12:62
  TRACK 65 AUDIO
    TITLE "0:"
    INDEX 01 01:13:67
  TRACK 66 AUDIO
    TITLE "4:cjc157_2915"
    INDEX 01 01:14:39
  TRACK 67 AUDIO
    TITLE "0:"
    INDEX 01 01:17:67
  TRACK 68 AUDIO
    TITLE "5:cjc157_2916"
    INDEX 01 01:18:37
  TRACK 69 AUDIO
    TITLE "0:"
    INDEX 01 01:20:55
  TRACK 70 AUDIO
    TITLE "5:cjc157_2917"
    INDEX 01 01:21:29
  TRACK 71 AUDIO
    TITLE "0:"
    INDEX 01 01:24:32
  TRACK 72 AUDIO
    TITLE "3:cjc157_2918"
    INDEX 01 01:25:02
  TRACK 73 AUDIO
    TITLE "0:"
    INDEX 01 01:25:70
  TRACK 74 AUDIO
    TITLE "4:cjc157_2919"
    INDEX 01 01:26:44
  TRACK 75 AUDIO
    TITLE "0:"
    INDEX 01 01:29:48
  TRACK 76 AUDIO
    TITLE "5:cjc157_2920"
    INDEX 01 01:30:18
  TRACK 77 AUDIO
    TITLE "0:"
    INDEX 01 01:32:33
  TRACK 78 AUDIO
    TITLE "5:cjc157_2921"
    INDEX 01 01:33:05
  TRACK 79 AUDIO
    TITLE "0:"
    INDEX 01 01:35:31
  TRACK 80 AUDIO
    TITLE "5:cjc157_2922"
    INDEX 01 01:36:00
  TRACK 81 AUDIO
    TITLE "0:"
    INDEX 01 01:38:00
  TRACK 82 AUDIO
    TITLE "5:cjc157_2923"
    INDEX 01 01:38:47
  TRACK 83 AUDIO
    TITLE "0:"
    INDEX 01 01:41:12
